<svg id="_x31_px" enable-background="new 0 0 24 24" height="35" viewBox="0 0 24 24" width="35" xmlns="http://www.w3.org/2000/svg"><path d="m2.5 15c-.276 0-.5-.224-.5-.5v-9c0-1.379 1.122-2.5 2.5-2.5h4c.276 0 .5.224.5.5s-.224.5-.5.5h-4c-.827 0-1.5.673-1.5 1.5v9c0 .276-.224.5-.5.5z"/><path d="m17.5 13c-3.584 0-6.5-2.916-6.5-6.5s2.916-6.5 6.5-6.5 6.5 2.916 6.5 6.5-2.916 6.5-6.5 6.5zm0-12c-3.033 0-5.5 2.468-5.5 5.5s2.467 5.5 5.5 5.5 5.5-2.468 5.5-5.5-2.467-5.5-5.5-5.5z"/><path d="m17.5 10c-.276 0-.5-.224-.5-.5v-6c0-.276.224-.5.5-.5s.5.224.5.5v6c0 .276-.224.5-.5.5z"/><path d="m20.5 7h-6c-.276 0-.5-.224-.5-.5s.224-.5.5-.5h6c.276 0 .5.224.5.5s-.224.5-.5.5z"/><path d="m6 24c-.066 0-.133-.013-.197-.04-.254-.109-.372-.403-.263-.657l3-7c.108-.254.404-.369.656-.263.254.109.372.403.263.657l-3 7c-.081.19-.265.303-.459.303z"/><path d="m17 24c-.194 0-.378-.113-.459-.303l-3-7c-.109-.254.009-.548.263-.657.251-.107.547.008.656.263l3 7c.109.254-.009.548-.263.657-.064.027-.131.04-.197.04z"/><path d="m11.5 22c-.276 0-.5-.224-.5-.5v-5c0-.276.224-.5.5-.5s.5.224.5.5v5c0 .276-.224.5-.5.5z"/><path d="m22.5 17h-22c-.276 0-.5-.224-.5-.5v-2c0-.276.224-.5.5-.5h13c.276 0 .5.224.5.5s-.224.5-.5.5h-12.5v1h21v-1.5c0-.276.224-.5.5-.5s.5.224.5.5v2c0 .276-.224.5-.5.5z"/></svg>