<svg id="Capa_1" enable-background="new 0 0 512 512" height="50" viewBox="0 0 512 512" width="50" xmlns="http://www.w3.org/2000/svg"><g><path d="m226.013 90c-57.897 0-105 47.103-105 105 0 26.534 9.898 50.797 26.19 69.302 7.239-18.067 20.469-32.989 37.192-42.405-8.328-9.642-13.382-22.186-13.382-35.896 0-30.327 24.673-55 55-55s55 24.673 55 55c0 13.71-5.054 26.254-13.382 35.896 16.723 9.417 29.953 24.338 37.192 42.405 16.292-18.505 26.189-42.767 26.189-69.301.001-57.898-47.102-105.001-104.999-105.001z"/><circle cx="226.013" cy="186" r="25"/><path d="m226.013 241c-26.524 0-48.783 18.814-53.835 44.115 15.752 9.446 34.169 14.885 53.835 14.885s38.084-5.44 53.836-14.886c-5.053-25.3-27.312-44.114-53.836-44.114z"/><path d="m391 331c-49.706 0-90 40.294-90 90s40.294 90 90 90 90-40.294 90-90-40.294-90-90-90zm30 105h-15v15c0 8.284-6.716 15-15 15s-15-6.716-15-15v-15h-15c-8.284 0-15-6.716-15-15s6.716-15 15-15h15v-15c0-8.284 6.716-15 15-15s15 6.716 15 15v15h15c8.284 0 15 6.716 15 15s-6.716 15-15 15z"/><path d="m389.106 301.024c18.544-28.289 29.4-60.343 31.524-93.374 2.218-34.477-4.971-69.278-20.789-100.639s-39.532-57.828-68.576-76.537c-30.95-19.936-67.345-30.474-105.253-30.474s-74.304 10.538-105.253 30.475c-29.044 18.709-52.758 45.175-68.576 76.536s-23.007 66.162-20.789 100.639c2.362 36.739 15.521 72.271 38.053 102.756l144.503 195.509c2.828 3.827 7.305 6.084 12.062 6.084 4.759 0 9.234-2.258 12.062-6.084l37.78-51.115c-3.154-10.726-4.854-22.067-4.854-33.8 0-65.535 52.809-118.959 118.106-119.976zm-163.093 28.976c-74.439 0-135-60.561-135-135s60.561-135 135-135 135 60.561 135 135-60.561 135-135 135z"/></g></svg>