<svg xmlns="http://www.w3.org/2000/svg" height="23" width="23" fill="white" viewBox="0 0 35.5 35.5">
    <path d="M3.65,21.88a.73.73,0,0,1-.73-.73V8A3.64,3.64,0,0,1,6.56,4.38H12.4a.73.73,0,1,1,0,1.45H6.56A2.19,2.19,0,0,0,4.38,8V21.15A.73.73,0,0,1,3.65,21.88ZM25.52,19A9.48,9.48,0,1,1,35,9.48,9.49,9.49,0,0,1,25.52,19Zm0-17.5a8,8,0,1,0,8,8A8,8,0,0,0,25.52,1.46Zm0,13.12a.73.73,0,0,1-.73-.73V5.1a.73.73,0,0,1,1.46,0v8.75A.73.73,0,0,1,25.52,14.58Zm4.38-4.37H21.15a.73.73,0,1,1,0-1.46H29.9a.73.73,0,1,1,0,1.46ZM8.75,35a.75.75,0,0,1-.29-.06.73.73,0,0,1-.38-1l4.37-10.2a.73.73,0,1,1,1.34.57L9.42,34.56A.73.73,0,0,1,8.75,35Zm16,0a.73.73,0,0,1-.67-.44L19.75,24.35a.73.73,0,1,1,1.34-.57L25.46,34a.73.73,0,0,1-.38,1A.72.72,0,0,1,24.79,35Zm-8-2.92a.73.73,0,0,1-.73-.73V24.06a.73.73,0,0,1,1.46,0v7.29A.73.73,0,0,1,16.77,32.08Zm16-7.29H.73A.73.73,0,0,1,0,24.06V21.15a.73.73,0,0,1,.73-.73h19a.73.73,0,0,1,0,1.46H1.46v1.45H32.08V21.15a.73.73,0,0,1,1.46,0v2.91A.73.73,0,0,1,32.81,24.79Z" transform="translate(0.25 0.25)" style="stroke:#fff;stroke-miterlimit:10;stroke-width:0.5px"/>
</svg>