<svg id="Capa_1" data-name="Capa 1" xmlns="http://www.w3.org/2000/svg" viewBox="0 0 43.95 50"><title>add-location1</title><path d="M22.07,8.79a10.24,10.24,0,0,0-7.69,17A8.25,8.25,0,0,1,18,21.67a5.32,5.32,0,0,1-1.31-3.51,5.37,5.37,0,1,1,9.44,3.51,8.35,8.35,0,0,1,3.63,4.14,10.24,10.24,0,0,0-7.7-17Zm0,6.93a2.45,2.45,0,1,1-2.44,2.44A2.44,2.44,0,0,1,22.07,15.72Zm0,7.82a5.36,5.36,0,0,0-5.26,4.3,10.21,10.21,0,0,0,10.52,0A5.35,5.35,0,0,0,22.07,23.54Zm16.11,8.78A8.79,8.79,0,1,0,47,41.11,8.8,8.8,0,0,0,38.18,32.32Zm2.93,10.26H39.65V44a1.47,1.47,0,1,1-2.93,0V42.58H35.25a1.47,1.47,0,0,1,0-2.93h1.47V38.18a1.47,1.47,0,0,1,2.93,0v1.47h1.46a1.47,1.47,0,1,1,0,2.93ZM38,29.4a18.92,18.92,0,0,0,3.08-9.12A19.25,19.25,0,0,0,32.35,3,19.08,19.08,0,0,0,3.07,20.28a18.87,18.87,0,0,0,3.71,10l14.11,19.1a1.47,1.47,0,0,0,2.36,0l3.69-5a11.55,11.55,0,0,1-.48-3.3A11.73,11.73,0,0,1,38,29.4ZM22.07,32.23A13.19,13.19,0,1,1,35.26,19,13.2,13.2,0,0,1,22.07,32.23Z" transform="translate(-3.03 0)"/></svg>