<svg id="Capa_1" data-name="Capa 1" xmlns="http://www.w3.org/2000/svg" viewBox="0 0 512 511"><title>add-user1</title><path d="M428.16,387.74V303.91H388.24v83.83H304.4v39.93h83.84V511.5h39.92V427.67H512V387.74ZM255.5.5C174.05.5,107.79,66.76,107.79,148.21a147.65,147.65,0,0,0,64.14,121.72A255.92,255.92,0,0,0,0,511.5H39.92c0-118.87,96.71-215.58,215.58-215.58,81.45,0,147.71-66.26,147.71-147.71S337,.5,255.5.5Zm0,255.5A107.79,107.79,0,1,1,363.29,148.21,107.91,107.91,0,0,1,255.5,256Z" transform="translate(0 -0.5)"/></svg>