<svg id="bold" xmlns="http://www.w3.org/2000/svg" viewBox="0 0 35 35"><defs><style>.cls-1{fill:#fff;}</style></defs><title>supervisor1</title><path class="cls-1" d="M23.33,21.88a2.92,2.92,0,1,1-2.91,2.91A2.91,2.91,0,0,1,23.33,21.88Zm1.83,7.29H21.51a4,4,0,0,0-4,4v.73A1.09,1.09,0,0,0,18.59,35h9.48a1.09,1.09,0,0,0,1.1-1.09v-.73A4,4,0,0,0,25.16,29.17Zm8.75-3.28h-.73v-.73a1.1,1.1,0,1,0-2.19,0v.73h-.73a1.09,1.09,0,0,0,0,2.18H31v.73a1.1,1.1,0,1,0,2.19,0v-.73h.73a1.09,1.09,0,1,0,0-2.18ZM2.19,28.44V24.06H17.57a6,6,0,0,1,.74-2.18h-1.9V19.32H12.76a1.09,1.09,0,1,1,0-2.18h3.65V15H12.76a1.1,1.1,0,0,1,0-2.19h3.65V10.57H12.76a1.09,1.09,0,0,1,0-2.18h3.65V6.2H12.76a1.1,1.1,0,0,1,0-2.19h3.65V1.09A1.09,1.09,0,0,0,15.31,0H8A1.09,1.09,0,0,0,6.93,1.09V4H4A1.09,1.09,0,0,0,2.92,5.1V21.88H1.09A1.09,1.09,0,0,0,0,23v6.56a1.09,1.09,0,0,0,1.09,1.1h14a6.92,6.92,0,0,1,1.41-2.19ZM5.1,6.2H6.93V8.39H5.1Zm0,4.37H6.93v2.19H5.1ZM5.1,15H6.93v2.19H5.1Zm0,4.37H6.93v2.56H5.1Z" transform="translate(0)"/></svg>